ISO-10303-21;
HEADER;
FILE_DESCRIPTION(('FreeCAD Model'),'2;1');
FILE_NAME('Open CASCADE Shape Model','2026-04-30T06:53:48',('Author'),(
    ''),'Open CASCADE STEP processor 7.8','FreeCAD','Unknown');
FILE_SCHEMA(('AUTOMOTIVE_DESIGN { 1 0 10303 214 1 1 1 1 }'));
ENDSEC;
DATA;
#1 = APPLICATION_PROTOCOL_DEFINITION('international standard',
  'automotive_design',2000,#2);
#2 = APPLICATION_CONTEXT(
  'core data for automotive mechanical design processes');
#3 = SHAPE_DEFINITION_REPRESENTATION(#4,#10);
#4 = PRODUCT_DEFINITION_SHAPE('','',#5);
#5 = PRODUCT_DEFINITION('design','',#6,#9);
#6 = PRODUCT_DEFINITION_FORMATION('','',#7);
#7 = PRODUCT('Small','Small','',(#8));
#8 = PRODUCT_CONTEXT('',#2,'mechanical');
#9 = PRODUCT_DEFINITION_CONTEXT('part definition',#2,'design');
#10 = ADVANCED_BREP_SHAPE_REPRESENTATION('',(#11,#15),#1064);
#11 = AXIS2_PLACEMENT_3D('',#12,#13,#14);
#12 = CARTESIAN_POINT('',(0.,0.,0.));
#13 = DIRECTION('',(0.,0.,1.));
#14 = DIRECTION('',(1.,0.,-0.));
#15 = MANIFOLD_SOLID_BREP('',#16);
#16 = CLOSED_SHELL('',(#17,#57,#94,#134,#263,#292,#379,#403,#434,#521,
    #552,#577,#602,#626,#650,#675,#700,#717,#741,#770,#799,#816,#839,
    #859,#890,#906,#985));
#17 = ADVANCED_FACE('',(#18),#52,.F.);
#18 = FACE_BOUND('',#19,.F.);
#19 = EDGE_LOOP('',(#20,#30,#38,#46));
#20 = ORIENTED_EDGE('',*,*,#21,.T.);
#21 = EDGE_CURVE('',#22,#24,#26,.T.);
#22 = VERTEX_POINT('',#23);
#23 = CARTESIAN_POINT('',(0.,-1.,0.));
#24 = VERTEX_POINT('',#25);
#25 = CARTESIAN_POINT('',(0.,-1.,1.5));
#26 = LINE('',#27,#28);
#27 = CARTESIAN_POINT('',(-2.2E-16,-1.,0.));
#28 = VECTOR('',#29,1.);
#29 = DIRECTION('',(0.,0.,1.));
#30 = ORIENTED_EDGE('',*,*,#31,.T.);
#31 = EDGE_CURVE('',#24,#32,#34,.T.);
#32 = VERTEX_POINT('',#33);
#33 = CARTESIAN_POINT('',(0.,-12.4,1.5));
#34 = LINE('',#35,#36);
#35 = CARTESIAN_POINT('',(-2.2E-16,-1.,1.5));
#36 = VECTOR('',#37,1.);
#37 = DIRECTION('',(0.,-1.,0.));
#38 = ORIENTED_EDGE('',*,*,#39,.F.);
#39 = EDGE_CURVE('',#40,#32,#42,.T.);
#40 = VERTEX_POINT('',#41);
#41 = CARTESIAN_POINT('',(0.,-12.4,0.));
#42 = LINE('',#43,#44);
#43 = CARTESIAN_POINT('',(-2.2E-16,-12.4,0.));
#44 = VECTOR('',#45,1.);
#45 = DIRECTION('',(0.,0.,1.));
#46 = ORIENTED_EDGE('',*,*,#47,.F.);
#47 = EDGE_CURVE('',#22,#40,#48,.T.);
#48 = LINE('',#49,#50);
#49 = CARTESIAN_POINT('',(0.,0.,0.));
#50 = VECTOR('',#51,1.);
#51 = DIRECTION('',(0.,-1.,0.));
#52 = PLANE('',#53);
#53 = AXIS2_PLACEMENT_3D('',#54,#55,#56);
#54 = CARTESIAN_POINT('',(0.,0.,0.));
#55 = DIRECTION('',(1.,0.,0.));
#56 = DIRECTION('',(0.,-1.,0.));
#57 = ADVANCED_FACE('',(#58),#89,.T.);
#58 = FACE_BOUND('',#59,.F.);
#59 = EDGE_LOOP('',(#60,#61,#70,#78));
#60 = ORIENTED_EDGE('',*,*,#21,.F.);
#61 = ORIENTED_EDGE('',*,*,#62,.T.);
#62 = EDGE_CURVE('',#22,#63,#65,.T.);
#63 = VERTEX_POINT('',#64);
#64 = CARTESIAN_POINT('',(1.,0.,0.));
#65 = CIRCLE('',#66,1.);
#66 = AXIS2_PLACEMENT_3D('',#67,#68,#69);
#67 = CARTESIAN_POINT('',(1.,-1.,0.));
#68 = DIRECTION('',(-0.,-0.,-1.));
#69 = DIRECTION('',(0.,-1.,0.));
#70 = ORIENTED_EDGE('',*,*,#71,.T.);
#71 = EDGE_CURVE('',#63,#72,#74,.T.);
#72 = VERTEX_POINT('',#73);
#73 = CARTESIAN_POINT('',(1.,0.,1.5));
#74 = LINE('',#75,#76);
#75 = CARTESIAN_POINT('',(1.,2.2E-16,0.));
#76 = VECTOR('',#77,1.);
#77 = DIRECTION('',(0.,0.,1.));
#78 = ORIENTED_EDGE('',*,*,#79,.T.);
#79 = EDGE_CURVE('',#72,#24,#80,.T.);
#80 = B_SPLINE_CURVE_WITH_KNOTS('',7,(#81,#82,#83,#84,#85,#86,#87,#88),
  .UNSPECIFIED.,.F.,.F.,(8,8),(0.,1.),.PIECEWISE_BEZIER_KNOTS.);
#81 = CARTESIAN_POINT('',(1.,3.9E-16,1.5));
#82 = CARTESIAN_POINT('',(0.775600532716,3.9E-16,1.5));
#83 = CARTESIAN_POINT('',(0.551202117174,-5.874888899744E-02,1.5));
#84 = CARTESIAN_POINT('',(0.345253076409,-0.176237268878,1.5));
#85 = CARTESIAN_POINT('',(0.176237268876,-0.345253076405,1.5));
#86 = CARTESIAN_POINT('',(5.874888899839E-02,-0.551202117177,1.5));
#87 = CARTESIAN_POINT('',(-2.7E-16,-0.775600532715,1.5));
#88 = CARTESIAN_POINT('',(-2.8E-16,-1.,1.5));
#89 = CYLINDRICAL_SURFACE('',#90,1.);
#90 = AXIS2_PLACEMENT_3D('',#91,#92,#93);
#91 = CARTESIAN_POINT('',(1.,-1.,0.));
#92 = DIRECTION('',(0.,0.,1.));
#93 = DIRECTION('',(-1.,0.,0.));
#94 = ADVANCED_FACE('',(#95),#129,.T.);
#95 = FACE_BOUND('',#96,.F.);
#96 = EDGE_LOOP('',(#97,#111,#119,#128));
#97 = ORIENTED_EDGE('',*,*,#98,.T.);
#98 = EDGE_CURVE('',#24,#99,#101,.T.);
#99 = VERTEX_POINT('',#100);
#100 = CARTESIAN_POINT('',(1.5,-1.5,3.));
#101 = B_SPLINE_CURVE_WITH_KNOTS('',8,(#102,#103,#104,#105,#106,#107,
    #108,#109,#110),.UNSPECIFIED.,.F.,.F.,(9,9),(0.,1.),
  .PIECEWISE_BEZIER_KNOTS.);
#102 = CARTESIAN_POINT('',(-2.8E-16,-1.,1.5));
#103 = CARTESIAN_POINT('',(-2.9E-16,-1.0625,1.794524311274));
#104 = CARTESIAN_POINT('',(6.60911834418E-02,-1.125,2.089048715256));
#105 = CARTESIAN_POINT('',(0.198272901193,-1.1875,2.366269851503));
#106 = CARTESIAN_POINT('',(0.39111186633,-1.25,2.60888813367));
#107 = CARTESIAN_POINT('',(0.633730148497,-1.3125,2.801727098807));
#108 = CARTESIAN_POINT('',(0.910951284744,-1.375,2.933908816558));
#109 = CARTESIAN_POINT('',(1.205475688726,-1.4375,3.));
#110 = CARTESIAN_POINT('',(1.5,-1.5,3.));
#111 = ORIENTED_EDGE('',*,*,#112,.T.);
#112 = EDGE_CURVE('',#99,#113,#115,.T.);
#113 = VERTEX_POINT('',#114);
#114 = CARTESIAN_POINT('',(1.5,-11.9,3.));
#115 = LINE('',#116,#117);
#116 = CARTESIAN_POINT('',(1.5,-1.,3.));
#117 = VECTOR('',#118,1.);
#118 = DIRECTION('',(0.,-1.,0.));
#119 = ORIENTED_EDGE('',*,*,#120,.F.);
#120 = EDGE_CURVE('',#32,#113,#121,.T.);
#121 = B_SPLINE_CURVE_WITH_KNOTS('',5,(#122,#123,#124,#125,#126,#127),
  .UNSPECIFIED.,.F.,.F.,(6,6),(0.,1.),.PIECEWISE_BEZIER_KNOTS.);
#122 = CARTESIAN_POINT('',(-1.7E-16,-12.4,1.5));
#123 = CARTESIAN_POINT('',(-3.6E-16,-12.3,1.971238898038));
#124 = CARTESIAN_POINT('',(0.184522506069,-12.2,2.442917465044));
#125 = CARTESIAN_POINT('',(0.557082534956,-12.1,2.815477493931));
#126 = CARTESIAN_POINT('',(1.028761101962,-12.,3.));
#127 = CARTESIAN_POINT('',(1.5,-11.9,3.));
#128 = ORIENTED_EDGE('',*,*,#31,.F.);
#129 = CYLINDRICAL_SURFACE('',#130,1.5);
#130 = AXIS2_PLACEMENT_3D('',#131,#132,#133);
#131 = CARTESIAN_POINT('',(1.5,-1.,1.5));
#132 = DIRECTION('',(0.,-1.,0.));
#133 = DIRECTION('',(-1.,0.,0.));
#134 = ADVANCED_FACE('',(#135,#205),#258,.T.);
#135 = FACE_BOUND('',#136,.T.);
#136 = EDGE_LOOP('',(#137,#147,#156,#164,#173,#181,#190,#198));
#137 = ORIENTED_EDGE('',*,*,#138,.F.);
#138 = EDGE_CURVE('',#139,#141,#143,.T.);
#139 = VERTEX_POINT('',#140);
#140 = CARTESIAN_POINT('',(0.,1.,0.));
#141 = VERTEX_POINT('',#142);
#142 = CARTESIAN_POINT('',(13.4,1.,0.));
#143 = LINE('',#144,#145);
#144 = CARTESIAN_POINT('',(-1.,1.,0.));
#145 = VECTOR('',#146,1.);
#146 = DIRECTION('',(1.,0.,0.));
#147 = ORIENTED_EDGE('',*,*,#148,.T.);
#148 = EDGE_CURVE('',#139,#149,#151,.T.);
#149 = VERTEX_POINT('',#150);
#150 = CARTESIAN_POINT('',(-1.,0.,0.));
#151 = CIRCLE('',#152,1.);
#152 = AXIS2_PLACEMENT_3D('',#153,#154,#155);
#153 = CARTESIAN_POINT('',(-4.4E-16,2.2E-16,0.));
#154 = DIRECTION('',(0.,-0.,1.));
#155 = DIRECTION('',(0.,1.,0.));
#156 = ORIENTED_EDGE('',*,*,#157,.F.);
#157 = EDGE_CURVE('',#158,#149,#160,.T.);
#158 = VERTEX_POINT('',#159);
#159 = CARTESIAN_POINT('',(-1.,-13.4,0.));
#160 = LINE('',#161,#162);
#161 = CARTESIAN_POINT('',(-1.,-14.4,0.));
#162 = VECTOR('',#163,1.);
#163 = DIRECTION('',(0.,1.,0.));
#164 = ORIENTED_EDGE('',*,*,#165,.T.);
#165 = EDGE_CURVE('',#158,#166,#168,.T.);
#166 = VERTEX_POINT('',#167);
#167 = CARTESIAN_POINT('',(0.,-14.4,0.));
#168 = CIRCLE('',#169,1.);
#169 = AXIS2_PLACEMENT_3D('',#170,#171,#172);
#170 = CARTESIAN_POINT('',(-2.2E-16,-13.4,0.));
#171 = DIRECTION('',(0.,-0.,1.));
#172 = DIRECTION('',(0.,1.,0.));
#173 = ORIENTED_EDGE('',*,*,#174,.F.);
#174 = EDGE_CURVE('',#175,#166,#177,.T.);
#175 = VERTEX_POINT('',#176);
#176 = CARTESIAN_POINT('',(13.4,-14.4,0.));
#177 = LINE('',#178,#179);
#178 = CARTESIAN_POINT('',(14.4,-14.4,0.));
#179 = VECTOR('',#180,1.);
#180 = DIRECTION('',(-1.,0.,0.));
#181 = ORIENTED_EDGE('',*,*,#182,.F.);
#182 = EDGE_CURVE('',#183,#175,#185,.T.);
#183 = VERTEX_POINT('',#184);
#184 = CARTESIAN_POINT('',(14.4,-13.4,0.));
#185 = CIRCLE('',#186,1.);
#186 = AXIS2_PLACEMENT_3D('',#187,#188,#189);
#187 = CARTESIAN_POINT('',(13.4,-13.4,0.));
#188 = DIRECTION('',(0.,0.,-1.));
#189 = DIRECTION('',(0.,1.,0.));
#190 = ORIENTED_EDGE('',*,*,#191,.F.);
#191 = EDGE_CURVE('',#192,#183,#194,.T.);
#192 = VERTEX_POINT('',#193);
#193 = CARTESIAN_POINT('',(14.4,0.,0.));
#194 = LINE('',#195,#196);
#195 = CARTESIAN_POINT('',(14.4,1.,0.));
#196 = VECTOR('',#197,1.);
#197 = DIRECTION('',(0.,-1.,0.));
#198 = ORIENTED_EDGE('',*,*,#199,.F.);
#199 = EDGE_CURVE('',#141,#192,#200,.T.);
#200 = CIRCLE('',#201,1.);
#201 = AXIS2_PLACEMENT_3D('',#202,#203,#204);
#202 = CARTESIAN_POINT('',(13.4,1.1E-16,0.));
#203 = DIRECTION('',(0.,0.,-1.));
#204 = DIRECTION('',(0.,1.,0.));
#205 = FACE_BOUND('',#206,.T.);
#206 = EDGE_LOOP('',(#207,#208,#209,#217,#226,#234,#243,#251));
#207 = ORIENTED_EDGE('',*,*,#47,.F.);
#208 = ORIENTED_EDGE('',*,*,#62,.T.);
#209 = ORIENTED_EDGE('',*,*,#210,.F.);
#210 = EDGE_CURVE('',#211,#63,#213,.T.);
#211 = VERTEX_POINT('',#212);
#212 = CARTESIAN_POINT('',(12.4,0.,0.));
#213 = LINE('',#214,#215);
#214 = CARTESIAN_POINT('',(13.4,0.,0.));
#215 = VECTOR('',#216,1.);
#216 = DIRECTION('',(-1.,0.,0.));
#217 = ORIENTED_EDGE('',*,*,#218,.T.);
#218 = EDGE_CURVE('',#211,#219,#221,.T.);
#219 = VERTEX_POINT('',#220);
#220 = CARTESIAN_POINT('',(13.4,-1.,0.));
#221 = CIRCLE('',#222,1.);
#222 = AXIS2_PLACEMENT_3D('',#223,#224,#225);
#223 = CARTESIAN_POINT('',(12.4,-1.,0.));
#224 = DIRECTION('',(-0.,-0.,-1.));
#225 = DIRECTION('',(0.,-1.,0.));
#226 = ORIENTED_EDGE('',*,*,#227,.F.);
#227 = EDGE_CURVE('',#228,#219,#230,.T.);
#228 = VERTEX_POINT('',#229);
#229 = CARTESIAN_POINT('',(13.4,-12.4,0.));
#230 = LINE('',#231,#232);
#231 = CARTESIAN_POINT('',(13.4,-13.4,0.));
#232 = VECTOR('',#233,1.);
#233 = DIRECTION('',(0.,1.,0.));
#234 = ORIENTED_EDGE('',*,*,#235,.F.);
#235 = EDGE_CURVE('',#236,#228,#238,.T.);
#236 = VERTEX_POINT('',#237);
#237 = CARTESIAN_POINT('',(12.4,-13.4,0.));
#238 = CIRCLE('',#239,1.);
#239 = AXIS2_PLACEMENT_3D('',#240,#241,#242);
#240 = CARTESIAN_POINT('',(12.4,-12.4,0.));
#241 = DIRECTION('',(-0.,0.,1.));
#242 = DIRECTION('',(0.,-1.,0.));
#243 = ORIENTED_EDGE('',*,*,#244,.F.);
#244 = EDGE_CURVE('',#245,#236,#247,.T.);
#245 = VERTEX_POINT('',#246);
#246 = CARTESIAN_POINT('',(1.,-13.4,0.));
#247 = LINE('',#248,#249);
#248 = CARTESIAN_POINT('',(0.,-13.4,0.));
#249 = VECTOR('',#250,1.);
#250 = DIRECTION('',(1.,0.,0.));
#251 = ORIENTED_EDGE('',*,*,#252,.F.);
#252 = EDGE_CURVE('',#40,#245,#253,.T.);
#253 = CIRCLE('',#254,1.);
#254 = AXIS2_PLACEMENT_3D('',#255,#256,#257);
#255 = CARTESIAN_POINT('',(1.,-12.4,0.));
#256 = DIRECTION('',(-0.,0.,1.));
#257 = DIRECTION('',(0.,-1.,0.));
#258 = PLANE('',#259);
#259 = AXIS2_PLACEMENT_3D('',#260,#261,#262);
#260 = CARTESIAN_POINT('',(6.7,-6.7,0.));
#261 = DIRECTION('',(0.,0.,1.));
#262 = DIRECTION('',(1.,0.,0.));
#263 = ADVANCED_FACE('',(#264),#287,.T.);
#264 = FACE_BOUND('',#265,.T.);
#265 = EDGE_LOOP('',(#266,#267,#268,#276));
#266 = ORIENTED_EDGE('',*,*,#39,.F.);
#267 = ORIENTED_EDGE('',*,*,#252,.T.);
#268 = ORIENTED_EDGE('',*,*,#269,.T.);
#269 = EDGE_CURVE('',#245,#270,#272,.T.);
#270 = VERTEX_POINT('',#271);
#271 = CARTESIAN_POINT('',(1.,-13.4,1.5));
#272 = LINE('',#273,#274);
#273 = CARTESIAN_POINT('',(1.,-13.4,0.));
#274 = VECTOR('',#275,1.);
#275 = DIRECTION('',(0.,0.,1.));
#276 = ORIENTED_EDGE('',*,*,#277,.F.);
#277 = EDGE_CURVE('',#32,#270,#278,.T.);
#278 = B_SPLINE_CURVE_WITH_KNOTS('',7,(#279,#280,#281,#282,#283,#284,
    #285,#286),.UNSPECIFIED.,.F.,.F.,(8,8),(0.,1.),
  .PIECEWISE_BEZIER_KNOTS.);
#279 = CARTESIAN_POINT('',(-5.E-16,-12.4,1.5));
#280 = CARTESIAN_POINT('',(-5.E-16,-12.62439946728,1.5));
#281 = CARTESIAN_POINT('',(5.874888899739E-02,-12.84879788282,1.5));
#282 = CARTESIAN_POINT('',(0.176237268879,-13.05474692359,1.5));
#283 = CARTESIAN_POINT('',(0.345253076404,-13.22376273112,1.5));
#284 = CARTESIAN_POINT('',(0.551202117177,-13.341251111,1.5));
#285 = CARTESIAN_POINT('',(0.775600532715,-13.4,1.5));
#286 = CARTESIAN_POINT('',(1.,-13.4,1.5));
#287 = CYLINDRICAL_SURFACE('',#288,1.);
#288 = AXIS2_PLACEMENT_3D('',#289,#290,#291);
#289 = CARTESIAN_POINT('',(1.,-12.4,0.));
#290 = DIRECTION('',(0.,0.,1.));
#291 = DIRECTION('',(-1.,0.,0.));
#292 = ADVANCED_FACE('',(#293),#306,.T.);
#293 = FACE_BOUND('',#294,.T.);
#294 = EDGE_LOOP('',(#295,#304,#305));
#295 = ORIENTED_EDGE('',*,*,#296,.F.);
#296 = EDGE_CURVE('',#72,#99,#297,.T.);
#297 = B_SPLINE_CURVE_WITH_KNOTS('',5,(#298,#299,#300,#301,#302,#303),
  .UNSPECIFIED.,.F.,.F.,(6,6),(0.,1.),.PIECEWISE_BEZIER_KNOTS.);
#298 = CARTESIAN_POINT('',(1.,1.7E-16,1.5));
#299 = CARTESIAN_POINT('',(1.1,3.6E-16,1.971238898038));
#300 = CARTESIAN_POINT('',(1.2,-0.184522506069,2.442917465044));
#301 = CARTESIAN_POINT('',(1.3,-0.557082534956,2.815477493931));
#302 = CARTESIAN_POINT('',(1.4,-1.028761101962,3.));
#303 = CARTESIAN_POINT('',(1.5,-1.5,3.));
#304 = ORIENTED_EDGE('',*,*,#79,.T.);
#305 = ORIENTED_EDGE('',*,*,#98,.T.);
#306 = B_SPLINE_SURFACE_WITH_KNOTS('',7,8,(
    (#307,#308,#309,#310,#311,#312,#313,#314,#315)
    ,(#316,#317,#318,#319,#320,#321,#322,#323,#324)
    ,(#325,#326,#327,#328,#329,#330,#331,#332,#333)
    ,(#334,#335,#336,#337,#338,#339,#340,#341,#342)
    ,(#343,#344,#345,#346,#347,#348,#349,#350,#351)
    ,(#352,#353,#354,#355,#356,#357,#358,#359,#360)
    ,(#361,#362,#363,#364,#365,#366,#367,#368,#369)
    ,(#370,#371,#372,#373,#374,#375,#376,#377,#378
  )),.UNSPECIFIED.,.F.,.F.,.F.,(8,8),(9,9),(0.,1.),(0.,1.),
  .PIECEWISE_BEZIER_KNOTS.);
#307 = CARTESIAN_POINT('',(1.,3.9E-16,1.5));
#308 = CARTESIAN_POINT('',(1.0625,3.7E-16,1.794524311274));
#309 = CARTESIAN_POINT('',(1.125,-6.60911834418E-02,2.089048715256));
#310 = CARTESIAN_POINT('',(1.1875,-0.198272901193,2.366269851503));
#311 = CARTESIAN_POINT('',(1.25,-0.39111186633,2.60888813367));
#312 = CARTESIAN_POINT('',(1.3125,-0.633730148497,2.801727098807));
#313 = CARTESIAN_POINT('',(1.375,-0.910951284744,2.933908816558));
#314 = CARTESIAN_POINT('',(1.4375,-1.205475688726,3.));
#315 = CARTESIAN_POINT('',(1.5,-1.5,3.));
#316 = CARTESIAN_POINT('',(0.775600532716,3.9E-16,1.5));
#317 = CARTESIAN_POINT('',(0.839364751841,7.012483352616E-03,
    1.794524311274));
#318 = CARTESIAN_POINT('',(0.9125705686,-5.6131456456E-02,2.101038711616
    ));
#319 = CARTESIAN_POINT('',(0.995217890261,-0.197397306433,2.395053196509
    ));
#320 = CARTESIAN_POINT('',(1.086530532977,-0.412391307994,2.643191974091
    ));
#321 = CARTESIAN_POINT('',(1.184954506697,-0.666920231224,2.822052685464
    ));
#322 = CARTESIAN_POINT('',(1.288321745285,-0.939483492314,2.940820131288
    ));
#323 = CARTESIAN_POINT('',(1.394160879265,-1.220764876051,3.));
#324 = CARTESIAN_POINT('',(1.5,-1.5,3.));
#325 = CARTESIAN_POINT('',(0.551202117174,-5.874888899744E-02,1.5));
#326 = CARTESIAN_POINT('',(0.597271931886,-3.948565992413E-02,
    1.794524311274));
#327 = CARTESIAN_POINT('',(0.640951994602,-0.13014893172,2.109032042523)
  );
#328 = CARTESIAN_POINT('',(0.736237734864,-0.28027023423,2.41424209318)
  );
#329 = CARTESIAN_POINT('',(0.864170896275,-0.502089254776,2.666061201038
    ));
#330 = CARTESIAN_POINT('',(1.012096720696,-0.752203580268,2.835603076569
    ));
#331 = CARTESIAN_POINT('',(1.170977255939,-1.0065906301,2.945427674442)
  );
#332 = CARTESIAN_POINT('',(1.318518241097,-1.277707558611,3.));
#333 = CARTESIAN_POINT('',(1.5,-1.5,3.));
#334 = CARTESIAN_POINT('',(0.345253076409,-0.176237268878,1.5));
#335 = CARTESIAN_POINT('',(0.356754881129,-0.157965939414,1.794524311274
    ));
#336 = CARTESIAN_POINT('',(0.411884511124,-0.229612463598,2.113028707976
    ));
#337 = CARTESIAN_POINT('',(0.530304213004,-0.36805122726,2.423836541516)
  );
#338 = CARTESIAN_POINT('',(0.701323431606,-0.57452674246,2.677495814512)
  );
#339 = CARTESIAN_POINT('',(0.896888946604,-0.808222434767,2.842378272121
    ));
#340 = CARTESIAN_POINT('',(1.099961361073,-1.045763578978,2.947731446019
    ));
#341 = CARTESIAN_POINT('',(1.298285414431,-1.288590407473,3.));
#342 = CARTESIAN_POINT('',(1.5,-1.5,3.));
#343 = CARTESIAN_POINT('',(0.176237268876,-0.345253076405,1.5));
#344 = CARTESIAN_POINT('',(0.157965939412,-0.356754881125,1.794524311274
    ));
#345 = CARTESIAN_POINT('',(0.229612463596,-0.411884511121,2.113028707976
    ));
#346 = CARTESIAN_POINT('',(0.368051227259,-0.530304213001,2.423836541516
    ));
#347 = CARTESIAN_POINT('',(0.57452674246,-0.701323431604,2.677495814512)
  );
#348 = CARTESIAN_POINT('',(0.808222434766,-0.896888946602,2.842378272121
    ));
#349 = CARTESIAN_POINT('',(1.045763578978,-1.099961361072,2.947731446019
    ));
#350 = CARTESIAN_POINT('',(1.288590407474,-1.298285414431,3.));
#351 = CARTESIAN_POINT('',(1.5,-1.5,3.));
#352 = CARTESIAN_POINT('',(5.874888899839E-02,-0.551202117177,1.5));
#353 = CARTESIAN_POINT('',(3.948565992521E-02,-0.597271931889,
    1.794524311274));
#354 = CARTESIAN_POINT('',(0.130148931721,-0.640951994603,2.109032042523
    ));
#355 = CARTESIAN_POINT('',(0.280270234231,-0.736237734865,2.41424209318)
  );
#356 = CARTESIAN_POINT('',(0.502089254777,-0.864170896276,2.666061201038
    ));
#357 = CARTESIAN_POINT('',(0.752203580269,-1.012096720697,2.835603076569
    ));
#358 = CARTESIAN_POINT('',(1.0065906301,-1.17097725594,2.945427674442));
#359 = CARTESIAN_POINT('',(1.277707558611,-1.318518241097,3.));
#360 = CARTESIAN_POINT('',(1.5,-1.5,3.));
#361 = CARTESIAN_POINT('',(-2.7E-16,-0.775600532715,1.5));
#362 = CARTESIAN_POINT('',(-7.012483352666E-03,-0.83936475184,
    1.794524311274));
#363 = CARTESIAN_POINT('',(5.613145645593E-02,-0.912570568599,
    2.101038711616));
#364 = CARTESIAN_POINT('',(0.197397306433,-0.99521789026,2.395053196509)
  );
#365 = CARTESIAN_POINT('',(0.412391307994,-1.086530532976,2.643191974091
    ));
#366 = CARTESIAN_POINT('',(0.666920231224,-1.184954506696,2.822052685464
    ));
#367 = CARTESIAN_POINT('',(0.939483492314,-1.288321745285,2.940820131288
    ));
#368 = CARTESIAN_POINT('',(1.220764876051,-1.394160879264,3.));
#369 = CARTESIAN_POINT('',(1.5,-1.5,3.));
#370 = CARTESIAN_POINT('',(-2.8E-16,-1.,1.5));
#371 = CARTESIAN_POINT('',(-2.9E-16,-1.0625,1.794524311274));
#372 = CARTESIAN_POINT('',(6.60911834418E-02,-1.125,2.089048715256));
#373 = CARTESIAN_POINT('',(0.198272901193,-1.1875,2.366269851503));
#374 = CARTESIAN_POINT('',(0.39111186633,-1.25,2.60888813367));
#375 = CARTESIAN_POINT('',(0.633730148497,-1.3125,2.801727098807));
#376 = CARTESIAN_POINT('',(0.910951284744,-1.375,2.933908816558));
#377 = CARTESIAN_POINT('',(1.205475688726,-1.4375,3.));
#378 = CARTESIAN_POINT('',(1.5,-1.5,3.));
#379 = ADVANCED_FACE('',(#380),#398,.F.);
#380 = FACE_BOUND('',#381,.F.);
#381 = EDGE_LOOP('',(#382,#390,#396,#397));
#382 = ORIENTED_EDGE('',*,*,#383,.T.);
#383 = EDGE_CURVE('',#211,#384,#386,.T.);
#384 = VERTEX_POINT('',#385);
#385 = CARTESIAN_POINT('',(12.4,0.,1.5));
#386 = LINE('',#387,#388);
#387 = CARTESIAN_POINT('',(12.4,2.2E-16,0.));
#388 = VECTOR('',#389,1.);
#389 = DIRECTION('',(0.,0.,1.));
#390 = ORIENTED_EDGE('',*,*,#391,.T.);
#391 = EDGE_CURVE('',#384,#72,#392,.T.);
#392 = LINE('',#393,#394);
#393 = CARTESIAN_POINT('',(12.4,2.2E-16,1.5));
#394 = VECTOR('',#395,1.);
#395 = DIRECTION('',(-1.,0.,0.));
#396 = ORIENTED_EDGE('',*,*,#71,.F.);
#397 = ORIENTED_EDGE('',*,*,#210,.F.);
#398 = PLANE('',#399);
#399 = AXIS2_PLACEMENT_3D('',#400,#401,#402);
#400 = CARTESIAN_POINT('',(13.4,0.,0.));
#401 = DIRECTION('',(0.,-1.,0.));
#402 = DIRECTION('',(-1.,0.,0.));
#403 = ADVANCED_FACE('',(#404),#429,.T.);
#404 = FACE_BOUND('',#405,.T.);
#405 = EDGE_LOOP('',(#406,#414,#422,#428));
#406 = ORIENTED_EDGE('',*,*,#407,.T.);
#407 = EDGE_CURVE('',#113,#408,#410,.T.);
#408 = VERTEX_POINT('',#409);
#409 = CARTESIAN_POINT('',(11.9,-11.9,3.));
#410 = LINE('',#411,#412);
#411 = CARTESIAN_POINT('',(1.,-11.9,3.));
#412 = VECTOR('',#413,1.);
#413 = DIRECTION('',(1.,0.,0.));
#414 = ORIENTED_EDGE('',*,*,#415,.T.);
#415 = EDGE_CURVE('',#408,#416,#418,.T.);
#416 = VERTEX_POINT('',#417);
#417 = CARTESIAN_POINT('',(11.9,-1.5,3.));
#418 = LINE('',#419,#420);
#419 = CARTESIAN_POINT('',(11.9,-12.4,3.));
#420 = VECTOR('',#421,1.);
#421 = DIRECTION('',(0.,1.,0.));
#422 = ORIENTED_EDGE('',*,*,#423,.T.);
#423 = EDGE_CURVE('',#416,#99,#424,.T.);
#424 = LINE('',#425,#426);
#425 = CARTESIAN_POINT('',(12.4,-1.5,3.));
#426 = VECTOR('',#427,1.);
#427 = DIRECTION('',(-1.,0.,0.));
#428 = ORIENTED_EDGE('',*,*,#112,.T.);
#429 = PLANE('',#430);
#430 = AXIS2_PLACEMENT_3D('',#431,#432,#433);
#431 = CARTESIAN_POINT('',(6.7,-6.7,3.));
#432 = DIRECTION('',(0.,0.,1.));
#433 = DIRECTION('',(1.,0.,0.));
#434 = ADVANCED_FACE('',(#435),#448,.T.);
#435 = FACE_BOUND('',#436,.T.);
#436 = EDGE_LOOP('',(#437,#438,#439));
#437 = ORIENTED_EDGE('',*,*,#120,.F.);
#438 = ORIENTED_EDGE('',*,*,#277,.T.);
#439 = ORIENTED_EDGE('',*,*,#440,.T.);
#440 = EDGE_CURVE('',#270,#113,#441,.T.);
#441 = B_SPLINE_CURVE_WITH_KNOTS('',5,(#442,#443,#444,#445,#446,#447),
  .UNSPECIFIED.,.F.,.F.,(6,6),(0.,1.),.PIECEWISE_BEZIER_KNOTS.);
#442 = CARTESIAN_POINT('',(1.,-13.4,1.5));
#443 = CARTESIAN_POINT('',(1.1,-13.4,1.971238898038));
#444 = CARTESIAN_POINT('',(1.2,-13.21547749393,2.442917465044));
#445 = CARTESIAN_POINT('',(1.3,-12.84291746504,2.815477493931));
#446 = CARTESIAN_POINT('',(1.4,-12.37123889803,3.));
#447 = CARTESIAN_POINT('',(1.5,-11.9,3.));
#448 = B_SPLINE_SURFACE_WITH_KNOTS('',7,8,(
    (#449,#450,#451,#452,#453,#454,#455,#456,#457)
    ,(#458,#459,#460,#461,#462,#463,#464,#465,#466)
    ,(#467,#468,#469,#470,#471,#472,#473,#474,#475)
    ,(#476,#477,#478,#479,#480,#481,#482,#483,#484)
    ,(#485,#486,#487,#488,#489,#490,#491,#492,#493)
    ,(#494,#495,#496,#497,#498,#499,#500,#501,#502)
    ,(#503,#504,#505,#506,#507,#508,#509,#510,#511)
    ,(#512,#513,#514,#515,#516,#517,#518,#519,#520
  )),.UNSPECIFIED.,.F.,.F.,.F.,(8,8),(9,9),(0.,1.),(0.,1.),
  .PIECEWISE_BEZIER_KNOTS.);
#449 = CARTESIAN_POINT('',(-5.E-16,-12.4,1.5));
#450 = CARTESIAN_POINT('',(-5.E-16,-12.3375,1.794524311274));
#451 = CARTESIAN_POINT('',(6.60911834418E-02,-12.275,2.089048715256));
#452 = CARTESIAN_POINT('',(0.198272901193,-12.2125,2.366269851503));
#453 = CARTESIAN_POINT('',(0.39111186633,-12.15,2.60888813367));
#454 = CARTESIAN_POINT('',(0.633730148497,-12.0875,2.801727098807));
#455 = CARTESIAN_POINT('',(0.910951284744,-12.025,2.933908816558));
#456 = CARTESIAN_POINT('',(1.205475688726,-11.9625,3.));
#457 = CARTESIAN_POINT('',(1.5,-11.9,3.));
#458 = CARTESIAN_POINT('',(-5.E-16,-12.62439946728,1.5));
#459 = CARTESIAN_POINT('',(-7.012483352616E-03,-12.56063524815,
    1.794524311274));
#460 = CARTESIAN_POINT('',(5.6131456456E-02,-12.4874294314,
    2.101038711616));
#461 = CARTESIAN_POINT('',(0.197397306433,-12.40478210973,2.395053196509
    ));
#462 = CARTESIAN_POINT('',(0.412391307994,-12.31346946702,2.643191974091
    ));
#463 = CARTESIAN_POINT('',(0.666920231224,-12.2150454933,2.822052685464)
  );
#464 = CARTESIAN_POINT('',(0.939483492314,-12.11167825471,2.940820131288
    ));
#465 = CARTESIAN_POINT('',(1.220764876051,-12.00583912073,3.));
#466 = CARTESIAN_POINT('',(1.5,-11.9,3.));
#467 = CARTESIAN_POINT('',(5.874888899739E-02,-12.84879788282,1.5));
#468 = CARTESIAN_POINT('',(3.948565992408E-02,-12.80272806811,
    1.794524311274));
#469 = CARTESIAN_POINT('',(0.13014893172,-12.75904800539,2.109032042523)
  );
#470 = CARTESIAN_POINT('',(0.28027023423,-12.66376226513,2.41424209318)
  );
#471 = CARTESIAN_POINT('',(0.502089254776,-12.53582910372,2.666061201038
    ));
#472 = CARTESIAN_POINT('',(0.752203580268,-12.3879032793,2.835603076569)
  );
#473 = CARTESIAN_POINT('',(1.0065906301,-12.22902274406,2.945427674442)
  );
#474 = CARTESIAN_POINT('',(1.277707558611,-12.0814817589,3.));
#475 = CARTESIAN_POINT('',(1.5,-11.9,3.));
#476 = CARTESIAN_POINT('',(0.176237268879,-13.05474692359,1.5));
#477 = CARTESIAN_POINT('',(0.157965939414,-13.04324511887,1.794524311274
    ));
#478 = CARTESIAN_POINT('',(0.229612463598,-12.98811548887,2.113028707976
    ));
#479 = CARTESIAN_POINT('',(0.36805122726,-12.86969578699,2.423836541516)
  );
#480 = CARTESIAN_POINT('',(0.57452674246,-12.69867656839,2.677495814512)
  );
#481 = CARTESIAN_POINT('',(0.808222434767,-12.50311105339,2.842378272121
    ));
#482 = CARTESIAN_POINT('',(1.045763578978,-12.30003863892,2.947731446019
    ));
#483 = CARTESIAN_POINT('',(1.288590407473,-12.10171458556,3.));
#484 = CARTESIAN_POINT('',(1.5,-11.9,3.));
#485 = CARTESIAN_POINT('',(0.345253076404,-13.22376273112,1.5));
#486 = CARTESIAN_POINT('',(0.356754881125,-13.24203406058,1.794524311274
    ));
#487 = CARTESIAN_POINT('',(0.411884511121,-13.1703875364,2.113028707976)
  );
#488 = CARTESIAN_POINT('',(0.530304213001,-13.03194877274,2.423836541516
    ));
#489 = CARTESIAN_POINT('',(0.701323431604,-12.82547325754,2.677495814512
    ));
#490 = CARTESIAN_POINT('',(0.896888946602,-12.59177756523,2.842378272121
    ));
#491 = CARTESIAN_POINT('',(1.099961361072,-12.35423642102,2.947731446019
    ));
#492 = CARTESIAN_POINT('',(1.298285414431,-12.11140959252,3.));
#493 = CARTESIAN_POINT('',(1.5,-11.9,3.));
#494 = CARTESIAN_POINT('',(0.551202117177,-13.341251111,1.5));
#495 = CARTESIAN_POINT('',(0.597271931889,-13.36051434007,1.794524311274
    ));
#496 = CARTESIAN_POINT('',(0.640951994603,-13.26985106827,2.109032042523
    ));
#497 = CARTESIAN_POINT('',(0.736237734865,-13.11972976576,2.41424209318)
  );
#498 = CARTESIAN_POINT('',(0.864170896276,-12.89791074522,2.666061201038
    ));
#499 = CARTESIAN_POINT('',(1.012096720697,-12.64779641973,2.835603076569
    ));
#500 = CARTESIAN_POINT('',(1.17097725594,-12.3934093699,2.945427674442)
  );
#501 = CARTESIAN_POINT('',(1.318518241097,-12.12229244138,3.));
#502 = CARTESIAN_POINT('',(1.5,-11.9,3.));
#503 = CARTESIAN_POINT('',(0.775600532715,-13.4,1.5));
#504 = CARTESIAN_POINT('',(0.83936475184,-13.40701248335,1.794524311274)
  );
#505 = CARTESIAN_POINT('',(0.912570568599,-13.34386854354,2.101038711616
    ));
#506 = CARTESIAN_POINT('',(0.99521789026,-13.20260269356,2.395053196509)
  );
#507 = CARTESIAN_POINT('',(1.086530532976,-12.987608692,2.643191974091)
  );
#508 = CARTESIAN_POINT('',(1.184954506696,-12.73307976877,2.822052685464
    ));
#509 = CARTESIAN_POINT('',(1.288321745285,-12.46051650768,2.940820131288
    ));
#510 = CARTESIAN_POINT('',(1.394160879264,-12.17923512394,3.));
#511 = CARTESIAN_POINT('',(1.5,-11.9,3.));
#512 = CARTESIAN_POINT('',(1.,-13.4,1.5));
#513 = CARTESIAN_POINT('',(1.0625,-13.4,1.794524311274));
#514 = CARTESIAN_POINT('',(1.125,-13.33390881655,2.089048715256));
#515 = CARTESIAN_POINT('',(1.1875,-13.2017270988,2.366269851503));
#516 = CARTESIAN_POINT('',(1.25,-13.00888813367,2.60888813367));
#517 = CARTESIAN_POINT('',(1.3125,-12.7662698515,2.801727098807));
#518 = CARTESIAN_POINT('',(1.375,-12.48904871525,2.933908816558));
#519 = CARTESIAN_POINT('',(1.4375,-12.19452431127,3.));
#520 = CARTESIAN_POINT('',(1.5,-11.9,3.));
#521 = ADVANCED_FACE('',(#522),#547,.F.);
#522 = FACE_BOUND('',#523,.F.);
#523 = EDGE_LOOP('',(#524,#525,#533,#541));
#524 = ORIENTED_EDGE('',*,*,#138,.F.);
#525 = ORIENTED_EDGE('',*,*,#526,.T.);
#526 = EDGE_CURVE('',#139,#527,#529,.T.);
#527 = VERTEX_POINT('',#528);
#528 = CARTESIAN_POINT('',(0.,1.,-3.));
#529 = LINE('',#530,#531);
#530 = CARTESIAN_POINT('',(-4.4E-16,1.,0.));
#531 = VECTOR('',#532,1.);
#532 = DIRECTION('',(0.,0.,-1.));
#533 = ORIENTED_EDGE('',*,*,#534,.T.);
#534 = EDGE_CURVE('',#527,#535,#537,.T.);
#535 = VERTEX_POINT('',#536);
#536 = CARTESIAN_POINT('',(13.4,1.,-3.));
#537 = LINE('',#538,#539);
#538 = CARTESIAN_POINT('',(-1.,1.,-3.));
#539 = VECTOR('',#540,1.);
#540 = DIRECTION('',(1.,0.,0.));
#541 = ORIENTED_EDGE('',*,*,#542,.F.);
#542 = EDGE_CURVE('',#141,#535,#543,.T.);
#543 = LINE('',#544,#545);
#544 = CARTESIAN_POINT('',(13.4,1.,0.));
#545 = VECTOR('',#546,1.);
#546 = DIRECTION('',(0.,0.,-1.));
#547 = PLANE('',#548);
#548 = AXIS2_PLACEMENT_3D('',#549,#550,#551);
#549 = CARTESIAN_POINT('',(-1.,1.,0.));
#550 = DIRECTION('',(0.,-1.,0.));
#551 = DIRECTION('',(1.,0.,0.));
#552 = ADVANCED_FACE('',(#553),#572,.T.);
#553 = FACE_BOUND('',#554,.F.);
#554 = EDGE_LOOP('',(#555,#556,#564,#571));
#555 = ORIENTED_EDGE('',*,*,#148,.T.);
#556 = ORIENTED_EDGE('',*,*,#557,.T.);
#557 = EDGE_CURVE('',#149,#558,#560,.T.);
#558 = VERTEX_POINT('',#559);
#559 = CARTESIAN_POINT('',(-1.,0.,-3.));
#560 = LINE('',#561,#562);
#561 = CARTESIAN_POINT('',(-1.,2.8E-16,0.));
#562 = VECTOR('',#563,1.);
#563 = DIRECTION('',(0.,0.,-1.));
#564 = ORIENTED_EDGE('',*,*,#565,.F.);
#565 = EDGE_CURVE('',#527,#558,#566,.T.);
#566 = CIRCLE('',#567,1.);
#567 = AXIS2_PLACEMENT_3D('',#568,#569,#570);
#568 = CARTESIAN_POINT('',(-4.4E-16,2.2E-16,-3.));
#569 = DIRECTION('',(0.,-0.,1.));
#570 = DIRECTION('',(0.,1.,0.));
#571 = ORIENTED_EDGE('',*,*,#526,.F.);
#572 = CYLINDRICAL_SURFACE('',#573,1.);
#573 = AXIS2_PLACEMENT_3D('',#574,#575,#576);
#574 = CARTESIAN_POINT('',(-4.4E-16,2.2E-16,0.));
#575 = DIRECTION('',(0.,0.,-1.));
#576 = DIRECTION('',(0.,1.,0.));
#577 = ADVANCED_FACE('',(#578),#597,.T.);
#578 = FACE_BOUND('',#579,.T.);
#579 = EDGE_LOOP('',(#580,#581,#589,#596));
#580 = ORIENTED_EDGE('',*,*,#199,.T.);
#581 = ORIENTED_EDGE('',*,*,#582,.T.);
#582 = EDGE_CURVE('',#192,#583,#585,.T.);
#583 = VERTEX_POINT('',#584);
#584 = CARTESIAN_POINT('',(14.4,0.,-3.));
#585 = LINE('',#586,#587);
#586 = CARTESIAN_POINT('',(14.4,1.7E-16,0.));
#587 = VECTOR('',#588,1.);
#588 = DIRECTION('',(0.,0.,-1.));
#589 = ORIENTED_EDGE('',*,*,#590,.F.);
#590 = EDGE_CURVE('',#535,#583,#591,.T.);
#591 = CIRCLE('',#592,1.);
#592 = AXIS2_PLACEMENT_3D('',#593,#594,#595);
#593 = CARTESIAN_POINT('',(13.4,1.1E-16,-3.));
#594 = DIRECTION('',(0.,0.,-1.));
#595 = DIRECTION('',(0.,1.,0.));
#596 = ORIENTED_EDGE('',*,*,#542,.F.);
#597 = CYLINDRICAL_SURFACE('',#598,1.);
#598 = AXIS2_PLACEMENT_3D('',#599,#600,#601);
#599 = CARTESIAN_POINT('',(13.4,1.1E-16,0.));
#600 = DIRECTION('',(0.,0.,-1.));
#601 = DIRECTION('',(0.,1.,0.));
#602 = ADVANCED_FACE('',(#603),#621,.F.);
#603 = FACE_BOUND('',#604,.F.);
#604 = EDGE_LOOP('',(#605,#606,#614,#620));
#605 = ORIENTED_EDGE('',*,*,#157,.F.);
#606 = ORIENTED_EDGE('',*,*,#607,.T.);
#607 = EDGE_CURVE('',#158,#608,#610,.T.);
#608 = VERTEX_POINT('',#609);
#609 = CARTESIAN_POINT('',(-1.,-13.4,-3.));
#610 = LINE('',#611,#612);
#611 = CARTESIAN_POINT('',(-1.,-13.4,0.));
#612 = VECTOR('',#613,1.);
#613 = DIRECTION('',(0.,0.,-1.));
#614 = ORIENTED_EDGE('',*,*,#615,.T.);
#615 = EDGE_CURVE('',#608,#558,#616,.T.);
#616 = LINE('',#617,#618);
#617 = CARTESIAN_POINT('',(-1.,-14.4,-3.));
#618 = VECTOR('',#619,1.);
#619 = DIRECTION('',(0.,1.,0.));
#620 = ORIENTED_EDGE('',*,*,#557,.F.);
#621 = PLANE('',#622);
#622 = AXIS2_PLACEMENT_3D('',#623,#624,#625);
#623 = CARTESIAN_POINT('',(-1.,-14.4,0.));
#624 = DIRECTION('',(1.,0.,0.));
#625 = DIRECTION('',(0.,1.,0.));
#626 = ADVANCED_FACE('',(#627),#645,.F.);
#627 = FACE_BOUND('',#628,.F.);
#628 = EDGE_LOOP('',(#629,#630,#631,#639));
#629 = ORIENTED_EDGE('',*,*,#191,.F.);
#630 = ORIENTED_EDGE('',*,*,#582,.T.);
#631 = ORIENTED_EDGE('',*,*,#632,.T.);
#632 = EDGE_CURVE('',#583,#633,#635,.T.);
#633 = VERTEX_POINT('',#634);
#634 = CARTESIAN_POINT('',(14.4,-13.4,-3.));
#635 = LINE('',#636,#637);
#636 = CARTESIAN_POINT('',(14.4,1.,-3.));
#637 = VECTOR('',#638,1.);
#638 = DIRECTION('',(0.,-1.,0.));
#639 = ORIENTED_EDGE('',*,*,#640,.F.);
#640 = EDGE_CURVE('',#183,#633,#641,.T.);
#641 = LINE('',#642,#643);
#642 = CARTESIAN_POINT('',(14.4,-13.4,0.));
#643 = VECTOR('',#644,1.);
#644 = DIRECTION('',(0.,0.,-1.));
#645 = PLANE('',#646);
#646 = AXIS2_PLACEMENT_3D('',#647,#648,#649);
#647 = CARTESIAN_POINT('',(14.4,1.,0.));
#648 = DIRECTION('',(-1.,-0.,-0.));
#649 = DIRECTION('',(0.,-1.,0.));
#650 = ADVANCED_FACE('',(#651),#670,.T.);
#651 = FACE_BOUND('',#652,.F.);
#652 = EDGE_LOOP('',(#653,#654,#662,#669));
#653 = ORIENTED_EDGE('',*,*,#165,.T.);
#654 = ORIENTED_EDGE('',*,*,#655,.T.);
#655 = EDGE_CURVE('',#166,#656,#658,.T.);
#656 = VERTEX_POINT('',#657);
#657 = CARTESIAN_POINT('',(-0.,-14.4,-3.));
#658 = LINE('',#659,#660);
#659 = CARTESIAN_POINT('',(-2.8E-16,-14.4,0.));
#660 = VECTOR('',#661,1.);
#661 = DIRECTION('',(0.,0.,-1.));
#662 = ORIENTED_EDGE('',*,*,#663,.F.);
#663 = EDGE_CURVE('',#608,#656,#664,.T.);
#664 = CIRCLE('',#665,1.);
#665 = AXIS2_PLACEMENT_3D('',#666,#667,#668);
#666 = CARTESIAN_POINT('',(-2.2E-16,-13.4,-3.));
#667 = DIRECTION('',(0.,-0.,1.));
#668 = DIRECTION('',(0.,1.,0.));
#669 = ORIENTED_EDGE('',*,*,#607,.F.);
#670 = CYLINDRICAL_SURFACE('',#671,1.);
#671 = AXIS2_PLACEMENT_3D('',#672,#673,#674);
#672 = CARTESIAN_POINT('',(-2.2E-16,-13.4,0.));
#673 = DIRECTION('',(0.,0.,-1.));
#674 = DIRECTION('',(-1.,-0.,-0.));
#675 = ADVANCED_FACE('',(#676),#695,.T.);
#676 = FACE_BOUND('',#677,.T.);
#677 = EDGE_LOOP('',(#678,#679,#687,#694));
#678 = ORIENTED_EDGE('',*,*,#182,.T.);
#679 = ORIENTED_EDGE('',*,*,#680,.T.);
#680 = EDGE_CURVE('',#175,#681,#683,.T.);
#681 = VERTEX_POINT('',#682);
#682 = CARTESIAN_POINT('',(13.4,-14.4,-3.));
#683 = LINE('',#684,#685);
#684 = CARTESIAN_POINT('',(13.4,-14.4,0.));
#685 = VECTOR('',#686,1.);
#686 = DIRECTION('',(0.,0.,-1.));
#687 = ORIENTED_EDGE('',*,*,#688,.F.);
#688 = EDGE_CURVE('',#633,#681,#689,.T.);
#689 = CIRCLE('',#690,1.);
#690 = AXIS2_PLACEMENT_3D('',#691,#692,#693);
#691 = CARTESIAN_POINT('',(13.4,-13.4,-3.));
#692 = DIRECTION('',(0.,0.,-1.));
#693 = DIRECTION('',(0.,1.,0.));
#694 = ORIENTED_EDGE('',*,*,#640,.F.);
#695 = CYLINDRICAL_SURFACE('',#696,1.);
#696 = AXIS2_PLACEMENT_3D('',#697,#698,#699);
#697 = CARTESIAN_POINT('',(13.4,-13.4,0.));
#698 = DIRECTION('',(0.,0.,-1.));
#699 = DIRECTION('',(1.,0.,0.));
#700 = ADVANCED_FACE('',(#701),#712,.F.);
#701 = FACE_BOUND('',#702,.F.);
#702 = EDGE_LOOP('',(#703,#704,#705,#711));
#703 = ORIENTED_EDGE('',*,*,#174,.F.);
#704 = ORIENTED_EDGE('',*,*,#680,.T.);
#705 = ORIENTED_EDGE('',*,*,#706,.T.);
#706 = EDGE_CURVE('',#681,#656,#707,.T.);
#707 = LINE('',#708,#709);
#708 = CARTESIAN_POINT('',(14.4,-14.4,-3.));
#709 = VECTOR('',#710,1.);
#710 = DIRECTION('',(-1.,0.,0.));
#711 = ORIENTED_EDGE('',*,*,#655,.F.);
#712 = PLANE('',#713);
#713 = AXIS2_PLACEMENT_3D('',#714,#715,#716);
#714 = CARTESIAN_POINT('',(14.4,-14.4,0.));
#715 = DIRECTION('',(0.,1.,0.));
#716 = DIRECTION('',(-1.,0.,0.));
#717 = ADVANCED_FACE('',(#718),#736,.F.);
#718 = FACE_BOUND('',#719,.F.);
#719 = EDGE_LOOP('',(#720,#721,#729,#735));
#720 = ORIENTED_EDGE('',*,*,#269,.T.);
#721 = ORIENTED_EDGE('',*,*,#722,.T.);
#722 = EDGE_CURVE('',#270,#723,#725,.T.);
#723 = VERTEX_POINT('',#724);
#724 = CARTESIAN_POINT('',(12.4,-13.4,1.5));
#725 = LINE('',#726,#727);
#726 = CARTESIAN_POINT('',(1.,-13.4,1.5));
#727 = VECTOR('',#728,1.);
#728 = DIRECTION('',(1.,0.,0.));
#729 = ORIENTED_EDGE('',*,*,#730,.F.);
#730 = EDGE_CURVE('',#236,#723,#731,.T.);
#731 = LINE('',#732,#733);
#732 = CARTESIAN_POINT('',(12.4,-13.4,0.));
#733 = VECTOR('',#734,1.);
#734 = DIRECTION('',(0.,0.,1.));
#735 = ORIENTED_EDGE('',*,*,#244,.F.);
#736 = PLANE('',#737);
#737 = AXIS2_PLACEMENT_3D('',#738,#739,#740);
#738 = CARTESIAN_POINT('',(0.,-13.4,0.));
#739 = DIRECTION('',(0.,1.,0.));
#740 = DIRECTION('',(1.,0.,0.));
#741 = ADVANCED_FACE('',(#742),#765,.T.);
#742 = FACE_BOUND('',#743,.F.);
#743 = EDGE_LOOP('',(#744,#745,#746,#754));
#744 = ORIENTED_EDGE('',*,*,#383,.F.);
#745 = ORIENTED_EDGE('',*,*,#218,.T.);
#746 = ORIENTED_EDGE('',*,*,#747,.T.);
#747 = EDGE_CURVE('',#219,#748,#750,.T.);
#748 = VERTEX_POINT('',#749);
#749 = CARTESIAN_POINT('',(13.4,-1.,1.5));
#750 = LINE('',#751,#752);
#751 = CARTESIAN_POINT('',(13.4,-1.,0.));
#752 = VECTOR('',#753,1.);
#753 = DIRECTION('',(0.,0.,1.));
#754 = ORIENTED_EDGE('',*,*,#755,.T.);
#755 = EDGE_CURVE('',#748,#384,#756,.T.);
#756 = B_SPLINE_CURVE_WITH_KNOTS('',7,(#757,#758,#759,#760,#761,#762,
    #763,#764),.UNSPECIFIED.,.F.,.F.,(8,8),(0.,1.),
  .PIECEWISE_BEZIER_KNOTS.);
#757 = CARTESIAN_POINT('',(13.4,-1.,1.5));
#758 = CARTESIAN_POINT('',(13.4,-0.775600532716,1.5));
#759 = CARTESIAN_POINT('',(13.341251111002,-0.551202117174,1.5));
#760 = CARTESIAN_POINT('',(13.223762731124,-0.345253076408,1.5));
#761 = CARTESIAN_POINT('',(13.054746923591,-0.176237268876,1.5));
#762 = CARTESIAN_POINT('',(12.848797882826,-5.874888899815E-02,1.5));
#763 = CARTESIAN_POINT('',(12.624399467284,5.2E-16,1.5));
#764 = CARTESIAN_POINT('',(12.4,5.E-16,1.5));
#765 = CYLINDRICAL_SURFACE('',#766,1.);
#766 = AXIS2_PLACEMENT_3D('',#767,#768,#769);
#767 = CARTESIAN_POINT('',(12.4,-1.,0.));
#768 = DIRECTION('',(0.,0.,1.));
#769 = DIRECTION('',(0.,1.,0.));
#770 = ADVANCED_FACE('',(#771),#794,.T.);
#771 = FACE_BOUND('',#772,.T.);
#772 = EDGE_LOOP('',(#773,#774,#775,#783));
#773 = ORIENTED_EDGE('',*,*,#730,.F.);
#774 = ORIENTED_EDGE('',*,*,#235,.T.);
#775 = ORIENTED_EDGE('',*,*,#776,.T.);
#776 = EDGE_CURVE('',#228,#777,#779,.T.);
#777 = VERTEX_POINT('',#778);
#778 = CARTESIAN_POINT('',(13.4,-12.4,1.5));
#779 = LINE('',#780,#781);
#780 = CARTESIAN_POINT('',(13.4,-12.4,0.));
#781 = VECTOR('',#782,1.);
#782 = DIRECTION('',(0.,0.,1.));
#783 = ORIENTED_EDGE('',*,*,#784,.F.);
#784 = EDGE_CURVE('',#723,#777,#785,.T.);
#785 = B_SPLINE_CURVE_WITH_KNOTS('',7,(#786,#787,#788,#789,#790,#791,
    #792,#793),.UNSPECIFIED.,.F.,.F.,(8,8),(0.,1.),
  .PIECEWISE_BEZIER_KNOTS.);
#786 = CARTESIAN_POINT('',(12.4,-13.4,1.5));
#787 = CARTESIAN_POINT('',(12.624399467284,-13.4,1.5));
#788 = CARTESIAN_POINT('',(12.848797882826,-13.341251111,1.5));
#789 = CARTESIAN_POINT('',(13.054746923592,-13.22376273112,1.5));
#790 = CARTESIAN_POINT('',(13.223762731123,-13.05474692359,1.5));
#791 = CARTESIAN_POINT('',(13.341251111002,-12.84879788282,1.5));
#792 = CARTESIAN_POINT('',(13.4,-12.62439946728,1.5));
#793 = CARTESIAN_POINT('',(13.4,-12.4,1.5));
#794 = CYLINDRICAL_SURFACE('',#795,1.);
#795 = AXIS2_PLACEMENT_3D('',#796,#797,#798);
#796 = CARTESIAN_POINT('',(12.4,-12.4,0.));
#797 = DIRECTION('',(0.,0.,1.));
#798 = DIRECTION('',(0.,-1.,0.));
#799 = ADVANCED_FACE('',(#800),#811,.F.);
#800 = FACE_BOUND('',#801,.F.);
#801 = EDGE_LOOP('',(#802,#803,#809,#810));
#802 = ORIENTED_EDGE('',*,*,#776,.T.);
#803 = ORIENTED_EDGE('',*,*,#804,.T.);
#804 = EDGE_CURVE('',#777,#748,#805,.T.);
#805 = LINE('',#806,#807);
#806 = CARTESIAN_POINT('',(13.4,-12.4,1.5));
#807 = VECTOR('',#808,1.);
#808 = DIRECTION('',(0.,1.,0.));
#809 = ORIENTED_EDGE('',*,*,#747,.F.);
#810 = ORIENTED_EDGE('',*,*,#227,.F.);
#811 = PLANE('',#812);
#812 = AXIS2_PLACEMENT_3D('',#813,#814,#815);
#813 = CARTESIAN_POINT('',(13.4,-13.4,0.));
#814 = DIRECTION('',(-1.,0.,0.));
#815 = DIRECTION('',(0.,1.,0.));
#816 = ADVANCED_FACE('',(#817),#834,.T.);
#817 = FACE_BOUND('',#818,.F.);
#818 = EDGE_LOOP('',(#819,#831,#832,#833));
#819 = ORIENTED_EDGE('',*,*,#820,.T.);
#820 = EDGE_CURVE('',#384,#416,#821,.T.);
#821 = B_SPLINE_CURVE_WITH_KNOTS('',8,(#822,#823,#824,#825,#826,#827,
    #828,#829,#830),.UNSPECIFIED.,.F.,.F.,(9,9),(0.,1.),
  .PIECEWISE_BEZIER_KNOTS.);
#822 = CARTESIAN_POINT('',(12.4,5.E-16,1.5));
#823 = CARTESIAN_POINT('',(12.3375,5.1E-16,1.794524311274));
#824 = CARTESIAN_POINT('',(12.275,-6.60911834418E-02,2.089048715256));
#825 = CARTESIAN_POINT('',(12.2125,-0.198272901193,2.366269851503));
#826 = CARTESIAN_POINT('',(12.15,-0.39111186633,2.60888813367));
#827 = CARTESIAN_POINT('',(12.0875,-0.633730148497,2.801727098807));
#828 = CARTESIAN_POINT('',(12.025,-0.910951284744,2.933908816558));
#829 = CARTESIAN_POINT('',(11.9625,-1.205475688726,3.));
#830 = CARTESIAN_POINT('',(11.9,-1.5,3.));
#831 = ORIENTED_EDGE('',*,*,#423,.T.);
#832 = ORIENTED_EDGE('',*,*,#296,.F.);
#833 = ORIENTED_EDGE('',*,*,#391,.F.);
#834 = CYLINDRICAL_SURFACE('',#835,1.5);
#835 = AXIS2_PLACEMENT_3D('',#836,#837,#838);
#836 = CARTESIAN_POINT('',(12.4,-1.5,1.5));
#837 = DIRECTION('',(-1.,0.,0.));
#838 = DIRECTION('',(0.,1.,0.));
#839 = ADVANCED_FACE('',(#840),#854,.T.);
#840 = FACE_BOUND('',#841,.F.);
#841 = EDGE_LOOP('',(#842,#843,#844,#853));
#842 = ORIENTED_EDGE('',*,*,#440,.T.);
#843 = ORIENTED_EDGE('',*,*,#407,.T.);
#844 = ORIENTED_EDGE('',*,*,#845,.F.);
#845 = EDGE_CURVE('',#723,#408,#846,.T.);
#846 = B_SPLINE_CURVE_WITH_KNOTS('',5,(#847,#848,#849,#850,#851,#852),
  .UNSPECIFIED.,.F.,.F.,(6,6),(0.,1.),.PIECEWISE_BEZIER_KNOTS.);
#847 = CARTESIAN_POINT('',(12.4,-13.4,1.5));
#848 = CARTESIAN_POINT('',(12.3,-13.4,1.971238898038));
#849 = CARTESIAN_POINT('',(12.2,-13.21547749393,2.442917465044));
#850 = CARTESIAN_POINT('',(12.1,-12.84291746504,2.815477493931));
#851 = CARTESIAN_POINT('',(12.,-12.37123889803,3.));
#852 = CARTESIAN_POINT('',(11.9,-11.9,3.));
#853 = ORIENTED_EDGE('',*,*,#722,.F.);
#854 = CYLINDRICAL_SURFACE('',#855,1.5);
#855 = AXIS2_PLACEMENT_3D('',#856,#857,#858);
#856 = CARTESIAN_POINT('',(1.,-11.9,1.5));
#857 = DIRECTION('',(1.,0.,0.));
#858 = DIRECTION('',(0.,-1.,0.));
#859 = ADVANCED_FACE('',(#860),#885,.T.);
#860 = FACE_BOUND('',#861,.F.);
#861 = EDGE_LOOP('',(#862,#874,#875,#884));
#862 = ORIENTED_EDGE('',*,*,#863,.T.);
#863 = EDGE_CURVE('',#777,#408,#864,.T.);
#864 = B_SPLINE_CURVE_WITH_KNOTS('',8,(#865,#866,#867,#868,#869,#870,
    #871,#872,#873),.UNSPECIFIED.,.F.,.F.,(9,9),(0.,1.),
  .PIECEWISE_BEZIER_KNOTS.);
#865 = CARTESIAN_POINT('',(13.4,-12.4,1.5));
#866 = CARTESIAN_POINT('',(13.4,-12.3375,1.794524311274));
#867 = CARTESIAN_POINT('',(13.333908816558,-12.275,2.089048715256));
#868 = CARTESIAN_POINT('',(13.201727098807,-12.2125,2.366269851503));
#869 = CARTESIAN_POINT('',(13.008888133669,-12.15,2.60888813367));
#870 = CARTESIAN_POINT('',(12.766269851503,-12.0875,2.801727098807));
#871 = CARTESIAN_POINT('',(12.489048715256,-12.025,2.933908816558));
#872 = CARTESIAN_POINT('',(12.194524311274,-11.9625,3.));
#873 = CARTESIAN_POINT('',(11.9,-11.9,3.));
#874 = ORIENTED_EDGE('',*,*,#415,.T.);
#875 = ORIENTED_EDGE('',*,*,#876,.F.);
#876 = EDGE_CURVE('',#748,#416,#877,.T.);
#877 = B_SPLINE_CURVE_WITH_KNOTS('',5,(#878,#879,#880,#881,#882,#883),
  .UNSPECIFIED.,.F.,.F.,(6,6),(0.,1.),.PIECEWISE_BEZIER_KNOTS.);
#878 = CARTESIAN_POINT('',(13.4,-1.,1.5));
#879 = CARTESIAN_POINT('',(13.4,-1.1,1.971238898038));
#880 = CARTESIAN_POINT('',(13.215477493931,-1.2,2.442917465044));
#881 = CARTESIAN_POINT('',(12.842917465044,-1.3,2.815477493931));
#882 = CARTESIAN_POINT('',(12.371238898038,-1.4,3.));
#883 = CARTESIAN_POINT('',(11.9,-1.5,3.));
#884 = ORIENTED_EDGE('',*,*,#804,.F.);
#885 = CYLINDRICAL_SURFACE('',#886,1.5);
#886 = AXIS2_PLACEMENT_3D('',#887,#888,#889);
#887 = CARTESIAN_POINT('',(11.9,-12.4,1.5));
#888 = DIRECTION('',(0.,1.,0.));
#889 = DIRECTION('',(1.,0.,0.));
#890 = ADVANCED_FACE('',(#891),#901,.F.);
#891 = FACE_BOUND('',#892,.F.);
#892 = EDGE_LOOP('',(#893,#894,#895,#896,#897,#898,#899,#900));
#893 = ORIENTED_EDGE('',*,*,#534,.F.);
#894 = ORIENTED_EDGE('',*,*,#565,.T.);
#895 = ORIENTED_EDGE('',*,*,#615,.F.);
#896 = ORIENTED_EDGE('',*,*,#663,.T.);
#897 = ORIENTED_EDGE('',*,*,#706,.F.);
#898 = ORIENTED_EDGE('',*,*,#688,.F.);
#899 = ORIENTED_EDGE('',*,*,#632,.F.);
#900 = ORIENTED_EDGE('',*,*,#590,.F.);
#901 = PLANE('',#902);
#902 = AXIS2_PLACEMENT_3D('',#903,#904,#905);
#903 = CARTESIAN_POINT('',(6.7,-6.7,-3.));
#904 = DIRECTION('',(0.,0.,1.));
#905 = DIRECTION('',(1.,0.,0.));
#906 = ADVANCED_FACE('',(#907),#912,.T.);
#907 = FACE_BOUND('',#908,.T.);
#908 = EDGE_LOOP('',(#909,#910,#911));
#909 = ORIENTED_EDGE('',*,*,#876,.F.);
#910 = ORIENTED_EDGE('',*,*,#755,.T.);
#911 = ORIENTED_EDGE('',*,*,#820,.T.);
#912 = B_SPLINE_SURFACE_WITH_KNOTS('',7,8,(
    (#913,#914,#915,#916,#917,#918,#919,#920,#921)
    ,(#922,#923,#924,#925,#926,#927,#928,#929,#930)
    ,(#931,#932,#933,#934,#935,#936,#937,#938,#939)
    ,(#940,#941,#942,#943,#944,#945,#946,#947,#948)
    ,(#949,#950,#951,#952,#953,#954,#955,#956,#957)
    ,(#958,#959,#960,#961,#962,#963,#964,#965,#966)
    ,(#967,#968,#969,#970,#971,#972,#973,#974,#975)
    ,(#976,#977,#978,#979,#980,#981,#982,#983,#984
  )),.UNSPECIFIED.,.F.,.F.,.F.,(8,8),(9,9),(0.,1.),(0.,1.),
  .PIECEWISE_BEZIER_KNOTS.);
#913 = CARTESIAN_POINT('',(13.4,-1.,1.5));
#914 = CARTESIAN_POINT('',(13.4,-1.0625,1.794524311274));
#915 = CARTESIAN_POINT('',(13.333908816558,-1.125,2.089048715256));
#916 = CARTESIAN_POINT('',(13.201727098807,-1.1875,2.366269851503));
#917 = CARTESIAN_POINT('',(13.008888133669,-1.25,2.60888813367));
#918 = CARTESIAN_POINT('',(12.766269851503,-1.3125,2.801727098807));
#919 = CARTESIAN_POINT('',(12.489048715256,-1.375,2.933908816558));
#920 = CARTESIAN_POINT('',(12.194524311274,-1.4375,3.));
#921 = CARTESIAN_POINT('',(11.9,-1.5,3.));
#922 = CARTESIAN_POINT('',(13.4,-0.775600532716,1.5));
#923 = CARTESIAN_POINT('',(13.407012483353,-0.839364751841,
    1.794524311274));
#924 = CARTESIAN_POINT('',(13.343868543544,-0.9125705686,2.101038711616)
  );
#925 = CARTESIAN_POINT('',(13.202602693567,-0.995217890261,
    2.395053196509));
#926 = CARTESIAN_POINT('',(12.987608692005,-1.086530532977,
    2.643191974091));
#927 = CARTESIAN_POINT('',(12.733079768776,-1.184954506697,
    2.822052685464));
#928 = CARTESIAN_POINT('',(12.460516507685,-1.288321745285,
    2.940820131288));
#929 = CARTESIAN_POINT('',(12.179235123949,-1.394160879265,3.));
#930 = CARTESIAN_POINT('',(11.9,-1.5,3.));
#931 = CARTESIAN_POINT('',(13.341251111002,-0.551202117174,1.5));
#932 = CARTESIAN_POINT('',(13.360514340075,-0.597271931886,
    1.794524311274));
#933 = CARTESIAN_POINT('',(13.269851068279,-0.640951994602,
    2.109032042523));
#934 = CARTESIAN_POINT('',(13.119729765769,-0.736237734864,2.41424209318
    ));
#935 = CARTESIAN_POINT('',(12.897910745223,-0.864170896275,
    2.666061201038));
#936 = CARTESIAN_POINT('',(12.647796419732,-1.012096720696,
    2.835603076569));
#937 = CARTESIAN_POINT('',(12.3934093699,-1.170977255939,2.945427674442)
  );
#938 = CARTESIAN_POINT('',(12.122292441389,-1.318518241097,3.));
#939 = CARTESIAN_POINT('',(11.9,-1.5,3.));
#940 = CARTESIAN_POINT('',(13.223762731124,-0.345253076408,1.5));
#941 = CARTESIAN_POINT('',(13.242034060588,-0.356754881129,
    1.794524311274));
#942 = CARTESIAN_POINT('',(13.170387536403,-0.411884511123,
    2.113028707976));
#943 = CARTESIAN_POINT('',(13.031948772742,-0.530304213003,
    2.423836541516));
#944 = CARTESIAN_POINT('',(12.82547325754,-0.701323431606,2.677495814512
    ));
#945 = CARTESIAN_POINT('',(12.591777565234,-0.896888946603,
    2.842378272121));
#946 = CARTESIAN_POINT('',(12.354236421022,-1.099961361073,
    2.947731446019));
#947 = CARTESIAN_POINT('',(12.111409592527,-1.298285414431,3.));
#948 = CARTESIAN_POINT('',(11.9,-1.5,3.));
#949 = CARTESIAN_POINT('',(13.054746923591,-0.176237268876,1.5));
#950 = CARTESIAN_POINT('',(13.043245118871,-0.157965939412,
    1.794524311274));
#951 = CARTESIAN_POINT('',(12.988115488877,-0.229612463597,
    2.113028707976));
#952 = CARTESIAN_POINT('',(12.869695786997,-0.368051227259,
    2.423836541516));
#953 = CARTESIAN_POINT('',(12.698676568394,-0.57452674246,2.677495814512
    ));
#954 = CARTESIAN_POINT('',(12.503111053397,-0.808222434766,
    2.842378272121));
#955 = CARTESIAN_POINT('',(12.300038638927,-1.045763578978,
    2.947731446019));
#956 = CARTESIAN_POINT('',(12.101714585569,-1.288590407474,3.));
#957 = CARTESIAN_POINT('',(11.9,-1.5,3.));
#958 = CARTESIAN_POINT('',(12.848797882826,-5.874888899815E-02,1.5));
#959 = CARTESIAN_POINT('',(12.802728068114,-3.948565992475E-02,
    1.794524311274));
#960 = CARTESIAN_POINT('',(12.759048005398,-0.13014893172,2.109032042523
    ));
#961 = CARTESIAN_POINT('',(12.663762265136,-0.280270234231,2.41424209318
    ));
#962 = CARTESIAN_POINT('',(12.535829103725,-0.502089254777,
    2.666061201038));
#963 = CARTESIAN_POINT('',(12.387903279304,-0.752203580269,
    2.835603076569));
#964 = CARTESIAN_POINT('',(12.229022744061,-1.0065906301,2.945427674442)
  );
#965 = CARTESIAN_POINT('',(12.081481758903,-1.277707558611,3.));
#966 = CARTESIAN_POINT('',(11.9,-1.5,3.));
#967 = CARTESIAN_POINT('',(12.624399467284,5.2E-16,1.5));
#968 = CARTESIAN_POINT('',(12.560635248159,7.012483352617E-03,
    1.794524311274));
#969 = CARTESIAN_POINT('',(12.4874294314,-5.6131456456E-02,
    2.101038711616));
#970 = CARTESIAN_POINT('',(12.404782109739,-0.197397306433,
    2.395053196509));
#971 = CARTESIAN_POINT('',(12.313469467023,-0.412391307994,
    2.643191974091));
#972 = CARTESIAN_POINT('',(12.215045493303,-0.666920231224,
    2.822052685464));
#973 = CARTESIAN_POINT('',(12.111678254715,-0.939483492314,
    2.940820131288));
#974 = CARTESIAN_POINT('',(12.005839120735,-1.220764876051,3.));
#975 = CARTESIAN_POINT('',(11.9,-1.5,3.));
#976 = CARTESIAN_POINT('',(12.4,5.E-16,1.5));
#977 = CARTESIAN_POINT('',(12.3375,5.1E-16,1.794524311274));
#978 = CARTESIAN_POINT('',(12.275,-6.60911834418E-02,2.089048715256));
#979 = CARTESIAN_POINT('',(12.2125,-0.198272901193,2.366269851503));
#980 = CARTESIAN_POINT('',(12.15,-0.39111186633,2.60888813367));
#981 = CARTESIAN_POINT('',(12.0875,-0.633730148497,2.801727098807));
#982 = CARTESIAN_POINT('',(12.025,-0.910951284744,2.933908816558));
#983 = CARTESIAN_POINT('',(11.9625,-1.205475688726,3.));
#984 = CARTESIAN_POINT('',(11.9,-1.5,3.));
#985 = ADVANCED_FACE('',(#986),#991,.T.);
#986 = FACE_BOUND('',#987,.T.);
#987 = EDGE_LOOP('',(#988,#989,#990));
#988 = ORIENTED_EDGE('',*,*,#845,.F.);
#989 = ORIENTED_EDGE('',*,*,#784,.T.);
#990 = ORIENTED_EDGE('',*,*,#863,.T.);
#991 = B_SPLINE_SURFACE_WITH_KNOTS('',7,8,(
    (#992,#993,#994,#995,#996,#997,#998,#999,#1000)
    ,(#1001,#1002,#1003,#1004,#1005,#1006,#1007,#1008,#1009)
    ,(#1010,#1011,#1012,#1013,#1014,#1015,#1016,#1017,#1018)
    ,(#1019,#1020,#1021,#1022,#1023,#1024,#1025,#1026,#1027)
    ,(#1028,#1029,#1030,#1031,#1032,#1033,#1034,#1035,#1036)
    ,(#1037,#1038,#1039,#1040,#1041,#1042,#1043,#1044,#1045)
    ,(#1046,#1047,#1048,#1049,#1050,#1051,#1052,#1053,#1054)
    ,(#1055,#1056,#1057,#1058,#1059,#1060,#1061,#1062,#1063
  )),.UNSPECIFIED.,.F.,.F.,.F.,(8,8),(9,9),(0.,1.),(0.,1.),
  .PIECEWISE_BEZIER_KNOTS.);
#992 = CARTESIAN_POINT('',(12.4,-13.4,1.5));
#993 = CARTESIAN_POINT('',(12.3375,-13.4,1.794524311274));
#994 = CARTESIAN_POINT('',(12.275,-13.33390881655,2.089048715256));
#995 = CARTESIAN_POINT('',(12.2125,-13.2017270988,2.366269851503));
#996 = CARTESIAN_POINT('',(12.15,-13.00888813366,2.60888813367));
#997 = CARTESIAN_POINT('',(12.0875,-12.7662698515,2.801727098807));
#998 = CARTESIAN_POINT('',(12.025,-12.48904871525,2.933908816558));
#999 = CARTESIAN_POINT('',(11.9625,-12.19452431127,3.));
#1000 = CARTESIAN_POINT('',(11.9,-11.9,3.));
#1001 = CARTESIAN_POINT('',(12.624399467284,-13.4,1.5));
#1002 = CARTESIAN_POINT('',(12.560635248159,-13.40701248335,
    1.794524311274));
#1003 = CARTESIAN_POINT('',(12.4874294314,-13.34386854354,2.101038711616
    ));
#1004 = CARTESIAN_POINT('',(12.404782109739,-13.20260269356,
    2.395053196509));
#1005 = CARTESIAN_POINT('',(12.313469467023,-12.987608692,2.643191974091
    ));
#1006 = CARTESIAN_POINT('',(12.215045493303,-12.73307976877,
    2.822052685464));
#1007 = CARTESIAN_POINT('',(12.111678254715,-12.46051650768,
    2.940820131288));
#1008 = CARTESIAN_POINT('',(12.005839120735,-12.17923512394,3.));
#1009 = CARTESIAN_POINT('',(11.9,-11.9,3.));
#1010 = CARTESIAN_POINT('',(12.848797882826,-13.341251111,1.5));
#1011 = CARTESIAN_POINT('',(12.802728068113,-13.36051434007,
    1.794524311274));
#1012 = CARTESIAN_POINT('',(12.759048005398,-13.26985106827,
    2.109032042523));
#1013 = CARTESIAN_POINT('',(12.663762265136,-13.11972976576,
    2.41424209318));
#1014 = CARTESIAN_POINT('',(12.535829103724,-12.89791074522,
    2.666061201038));
#1015 = CARTESIAN_POINT('',(12.387903279304,-12.64779641973,
    2.835603076569));
#1016 = CARTESIAN_POINT('',(12.229022744061,-12.3934093699,
    2.945427674442));
#1017 = CARTESIAN_POINT('',(12.081481758903,-12.12229244138,3.));
#1018 = CARTESIAN_POINT('',(11.9,-11.9,3.));
#1019 = CARTESIAN_POINT('',(13.054746923592,-13.22376273112,1.5));
#1020 = CARTESIAN_POINT('',(13.043245118872,-13.24203406058,
    1.794524311274));
#1021 = CARTESIAN_POINT('',(12.988115488877,-13.1703875364,
    2.113028707976));
#1022 = CARTESIAN_POINT('',(12.869695786997,-13.03194877274,
    2.423836541516));
#1023 = CARTESIAN_POINT('',(12.698676568394,-12.82547325754,
    2.677495814512));
#1024 = CARTESIAN_POINT('',(12.503111053397,-12.59177756523,
    2.842378272121));
#1025 = CARTESIAN_POINT('',(12.300038638927,-12.35423642102,
    2.947731446019));
#1026 = CARTESIAN_POINT('',(12.101714585569,-12.11140959252,3.));
#1027 = CARTESIAN_POINT('',(11.9,-11.9,3.));
#1028 = CARTESIAN_POINT('',(13.223762731123,-13.05474692359,1.5));
#1029 = CARTESIAN_POINT('',(13.242034060587,-13.04324511887,
    1.794524311274));
#1030 = CARTESIAN_POINT('',(13.170387536403,-12.98811548887,
    2.113028707976));
#1031 = CARTESIAN_POINT('',(13.031948772741,-12.86969578699,
    2.423836541516));
#1032 = CARTESIAN_POINT('',(12.82547325754,-12.69867656839,
    2.677495814512));
#1033 = CARTESIAN_POINT('',(12.591777565234,-12.50311105339,
    2.842378272121));
#1034 = CARTESIAN_POINT('',(12.354236421022,-12.30003863892,
    2.947731446019));
#1035 = CARTESIAN_POINT('',(12.111409592527,-12.10171458556,3.));
#1036 = CARTESIAN_POINT('',(11.9,-11.9,3.));
#1037 = CARTESIAN_POINT('',(13.341251111002,-12.84879788282,1.5));
#1038 = CARTESIAN_POINT('',(13.360514340076,-12.80272806811,
    1.794524311274));
#1039 = CARTESIAN_POINT('',(13.26985106828,-12.75904800539,
    2.109032042523));
#1040 = CARTESIAN_POINT('',(13.11972976577,-12.66376226513,2.41424209318
    ));
#1041 = CARTESIAN_POINT('',(12.897910745223,-12.53582910372,
    2.666061201038));
#1042 = CARTESIAN_POINT('',(12.647796419732,-12.3879032793,
    2.835603076569));
#1043 = CARTESIAN_POINT('',(12.3934093699,-12.22902274406,2.945427674442
    ));
#1044 = CARTESIAN_POINT('',(12.122292441389,-12.0814817589,3.));
#1045 = CARTESIAN_POINT('',(11.9,-11.9,3.));
#1046 = CARTESIAN_POINT('',(13.4,-12.62439946728,1.5));
#1047 = CARTESIAN_POINT('',(13.407012483353,-12.56063524815,
    1.794524311274));
#1048 = CARTESIAN_POINT('',(13.343868543544,-12.4874294314,
    2.101038711616));
#1049 = CARTESIAN_POINT('',(13.202602693567,-12.40478210973,
    2.395053196509));
#1050 = CARTESIAN_POINT('',(12.987608692005,-12.31346946702,
    2.643191974091));
#1051 = CARTESIAN_POINT('',(12.733079768776,-12.2150454933,
    2.822052685464));
#1052 = CARTESIAN_POINT('',(12.460516507685,-12.11167825471,
    2.940820131288));
#1053 = CARTESIAN_POINT('',(12.179235123949,-12.00583912073,3.));
#1054 = CARTESIAN_POINT('',(11.9,-11.9,3.));
#1055 = CARTESIAN_POINT('',(13.4,-12.4,1.5));
#1056 = CARTESIAN_POINT('',(13.4,-12.3375,1.794524311274));
#1057 = CARTESIAN_POINT('',(13.333908816558,-12.275,2.089048715256));
#1058 = CARTESIAN_POINT('',(13.201727098807,-12.2125,2.366269851503));
#1059 = CARTESIAN_POINT('',(13.008888133669,-12.15,2.60888813367));
#1060 = CARTESIAN_POINT('',(12.766269851503,-12.0875,2.801727098807));
#1061 = CARTESIAN_POINT('',(12.489048715256,-12.025,2.933908816558));
#1062 = CARTESIAN_POINT('',(12.194524311274,-11.9625,3.));
#1063 = CARTESIAN_POINT('',(11.9,-11.9,3.));
#1064 = ( GEOMETRIC_REPRESENTATION_CONTEXT(3) 
GLOBAL_UNCERTAINTY_ASSIGNED_CONTEXT((#1068)) 
GLOBAL_UNIT_ASSIGNED_CONTEXT((#1065,#1066,#1067)) REPRESENTATION_CONTEXT
('Context #1','3D Context with UNIT and UNCERTAINTY') );
#1065 = ( LENGTH_UNIT() NAMED_UNIT(*) SI_UNIT(.MILLI.,.METRE.) );
#1066 = ( NAMED_UNIT(*) PLANE_ANGLE_UNIT() SI_UNIT($,.RADIAN.) );
#1067 = ( NAMED_UNIT(*) SI_UNIT($,.STERADIAN.) SOLID_ANGLE_UNIT() );
#1068 = UNCERTAINTY_MEASURE_WITH_UNIT(LENGTH_MEASURE(5.E-05),#1065,
  'distance_accuracy_value','confusion accuracy');
#1069 = PRODUCT_RELATED_PRODUCT_CATEGORY('part',$,(#7));
#1070 = MECHANICAL_DESIGN_GEOMETRIC_PRESENTATION_REPRESENTATION('',(
    #1071),#1064);
#1071 = STYLED_ITEM('color',(#1072),#15);
#1072 = PRESENTATION_STYLE_ASSIGNMENT((#1073,#1079));
#1073 = SURFACE_STYLE_USAGE(.BOTH.,#1074);
#1074 = SURFACE_SIDE_STYLE('',(#1075));
#1075 = SURFACE_STYLE_FILL_AREA(#1076);
#1076 = FILL_AREA_STYLE('',(#1077));
#1077 = FILL_AREA_STYLE_COLOUR('',#1078);
#1078 = COLOUR_RGB('',0.678430976034,0.709803998361,0.741176010593);
#1079 = CURVE_STYLE('',#1080,POSITIVE_LENGTH_MEASURE(0.1),#1081);
#1080 = DRAUGHTING_PRE_DEFINED_CURVE_FONT('continuous');
#1081 = COLOUR_RGB('',9.803921802644E-02,9.803921802644E-02,
  9.803921802644E-02);
ENDSEC;
END-ISO-10303-21;
